STARTFONT 2.1
FONT -VT323-Medium-R-Normal--12-120-75-75-C-60-ISO10646-1
SIZE 12 75 75
FONTBOUNDINGBOX 8 12 0 0
STARTPROPERTIES 2
FONT_ASCENT 12
FONT_DESCENT 0
ENDPROPERTIES
CHARS 95
STARTCHAR U+0020
ENCODING 32
SWIDTH 500 0
DWIDTH 5 0
BBX 5 12 0 0
BITMAP
00
00
00
00
00
00
00
00
00
00
00
00
ENDCHAR
STARTCHAR U+0021
ENCODING 33
SWIDTH 500 0
DWIDTH 5 0
BBX 5 12 0 0
BITMAP
00
00
00
20
20
20
20
20
00
20
00
00
ENDCHAR
STARTCHAR U+0022
ENCODING 34
SWIDTH 500 0
DWIDTH 5 0
BBX 5 12 0 0
BITMAP
00
00
50
50
00
00
00
00
00
00
00
00
ENDCHAR
STARTCHAR U+0023
ENCODING 35
SWIDTH 500 0
DWIDTH 5 0
BBX 5 12 0 0
BITMAP
00
00
00
50
F0
50
50
F0
50
00
00
00
ENDCHAR
STARTCHAR U+0024
ENCODING 36
SWIDTH 500 0
DWIDTH 5 0
BBX 5 12 0 0
BITMAP
00
00
20
70
B0
A0
70
30
B0
70
20
00
ENDCHAR
STARTCHAR U+0025
ENCODING 37
SWIDTH 500 0
DWIDTH 5 0
BBX 5 12 0 0
BITMAP
00
00
00
50
D0
60
20
50
70
90
00
00
ENDCHAR
STARTCHAR U+0026
ENCODING 38
SWIDTH 500 0
DWIDTH 5 0
BBX 5 12 0 0
BITMAP
00
00
00
60
60
70
70
90
B0
70
00
00
ENDCHAR
STARTCHAR U+0027
ENCODING 39
SWIDTH 500 0
DWIDTH 5 0
BBX 5 12 0 0
BITMAP
00
00
20
20
00
00
00
00
00
00
00
00
ENDCHAR
STARTCHAR U+0028
ENCODING 40
SWIDTH 500 0
DWIDTH 5 0
BBX 5 12 0 0
BITMAP
00
00
20
20
20
20
20
20
20
20
20
00
ENDCHAR
STARTCHAR U+0029
ENCODING 41
SWIDTH 500 0
DWIDTH 5 0
BBX 5 12 0 0
BITMAP
00
00
40
20
20
20
20
20
20
20
40
00
ENDCHAR
STARTCHAR U+002A
ENCODING 42
SWIDTH 500 0
DWIDTH 5 0
BBX 5 12 0 0
BITMAP
00
00
00
00
20
70
20
70
20
00
00
00
ENDCHAR
STARTCHAR U+002B
ENCODING 43
SWIDTH 500 0
DWIDTH 5 0
BBX 5 12 0 0
BITMAP
00
00
00
00
20
20
70
20
20
00
00
00
ENDCHAR
STARTCHAR U+002C
ENCODING 44
SWIDTH 500 0
DWIDTH 5 0
BBX 5 12 0 0
BITMAP
00
00
00
00
00
00
00
00
20
20
20
20
ENDCHAR
STARTCHAR U+002D
ENCODING 45
SWIDTH 500 0
DWIDTH 5 0
BBX 5 12 0 0
BITMAP
00
00
00
00
00
00
70
00
00
00
00
00
ENDCHAR
STARTCHAR U+002E
ENCODING 46
SWIDTH 500 0
DWIDTH 5 0
BBX 5 12 0 0
BITMAP
00
00
00
00
00
00
00
00
20
20
00
00
ENDCHAR
STARTCHAR U+002F
ENCODING 47
SWIDTH 500 0
DWIDTH 5 0
BBX 5 12 0 0
BITMAP
00
00
10
10
10
20
20
20
40
40
80
00
ENDCHAR
STARTCHAR U+0030
ENCODING 48
SWIDTH 500 0
DWIDTH 5 0
BBX 5 12 0 0
BITMAP
00
00
00
20
50
50
50
50
50
20
00
00
ENDCHAR
STARTCHAR U+0031
ENCODING 49
SWIDTH 500 0
DWIDTH 5 0
BBX 5 12 0 0
BITMAP
00
00
00
20
60
20
20
20
20
70
00
00
ENDCHAR
STARTCHAR U+0032
ENCODING 50
SWIDTH 500 0
DWIDTH 5 0
BBX 5 12 0 0
BITMAP
00
00
00
70
50
10
30
20
40
70
00
00
ENDCHAR
STARTCHAR U+0033
ENCODING 51
SWIDTH 500 0
DWIDTH 5 0
BBX 5 12 0 0
BITMAP
00
00
00
70
50
10
30
10
50
70
00
00
ENDCHAR
STARTCHAR U+0034
ENCODING 52
SWIDTH 500 0
DWIDTH 5 0
BBX 5 12 0 0
BITMAP
00
00
00
30
50
50
50
F0
10
10
00
00
ENDCHAR
STARTCHAR U+0035
ENCODING 53
SWIDTH 500 0
DWIDTH 5 0
BBX 5 12 0 0
BITMAP
00
00
00
70
40
60
50
10
50
60
00
00
ENDCHAR
STARTCHAR U+0036
ENCODING 54
SWIDTH 500 0
DWIDTH 5 0
BBX 5 12 0 0
BITMAP
00
00
00
30
40
40
70
50
50
20
00
00
ENDCHAR
STARTCHAR U+0037
ENCODING 55
SWIDTH 500 0
DWIDTH 5 0
BBX 5 12 0 0
BITMAP
00
00
00
70
10
10
20
20
20
40
00
00
ENDCHAR
STARTCHAR U+0038
ENCODING 56
SWIDTH 500 0
DWIDTH 5 0
BBX 5 12 0 0
BITMAP
00
00
00
60
50
50
60
50
50
60
00
00
ENDCHAR
STARTCHAR U+0039
ENCODING 57
SWIDTH 500 0
DWIDTH 5 0
BBX 5 12 0 0
BITMAP
00
00
00
60
50
50
70
10
10
60
00
00
ENDCHAR
STARTCHAR U+003A
ENCODING 58
SWIDTH 500 0
DWIDTH 5 0
BBX 5 12 0 0
BITMAP
00
00
00
00
20
20
00
00
20
20
00
00
ENDCHAR
STARTCHAR U+003B
ENCODING 59
SWIDTH 500 0
DWIDTH 5 0
BBX 5 12 0 0
BITMAP
00
00
00
00
20
20
00
00
20
20
20
20
ENDCHAR
STARTCHAR U+003C
ENCODING 60
SWIDTH 500 0
DWIDTH 5 0
BBX 5 12 0 0
BITMAP
00
00
00
10
20
20
40
20
20
10
00
00
ENDCHAR
STARTCHAR U+003D
ENCODING 61
SWIDTH 500 0
DWIDTH 5 0
BBX 5 12 0 0
BITMAP
00
00
00
00
00
70
00
70
00
00
00
00
ENDCHAR
STARTCHAR U+003E
ENCODING 62
SWIDTH 500 0
DWIDTH 5 0
BBX 5 12 0 0
BITMAP
00
00
00
40
20
20
10
20
20
40
00
00
ENDCHAR
STARTCHAR U+003F
ENCODING 63
SWIDTH 500 0
DWIDTH 5 0
BBX 5 12 0 0
BITMAP
00
00
00
70
90
10
30
20
00
20
00
00
ENDCHAR
STARTCHAR U+0040
ENCODING 64
SWIDTH 500 0
DWIDTH 5 0
BBX 5 12 0 0
BITMAP
00
00
60
50
B0
B0
B0
B0
40
70
00
00
ENDCHAR
STARTCHAR U+0041
ENCODING 65
SWIDTH 500 0
DWIDTH 5 0
BBX 5 12 0 0
BITMAP
00
00
00
20
60
50
50
70
90
90
00
00
ENDCHAR
STARTCHAR U+0042
ENCODING 66
SWIDTH 500 0
DWIDTH 5 0
BBX 5 12 0 0
BITMAP
00
00
00
F0
90
90
F0
90
90
F0
00
00
ENDCHAR
STARTCHAR U+0043
ENCODING 67
SWIDTH 500 0
DWIDTH 5 0
BBX 5 12 0 0
BITMAP
00
00
00
70
50
80
80
80
50
70
00
00
ENDCHAR
STARTCHAR U+0044
ENCODING 68
SWIDTH 500 0
DWIDTH 5 0
BBX 5 12 0 0
BITMAP
00
00
00
E0
90
90
90
90
90
E0
00
00
ENDCHAR
STARTCHAR U+0045
ENCODING 69
SWIDTH 500 0
DWIDTH 5 0
BBX 5 12 0 0
BITMAP
00
00
00
70
40
40
70
40
40
70
00
00
ENDCHAR
STARTCHAR U+0046
ENCODING 70
SWIDTH 500 0
DWIDTH 5 0
BBX 5 12 0 0
BITMAP
00
00
00
70
40
40
70
40
40
40
00
00
ENDCHAR
STARTCHAR U+0047
ENCODING 71
SWIDTH 500 0
DWIDTH 5 0
BBX 5 12 0 0
BITMAP
00
00
00
70
50
80
90
90
50
70
00
00
ENDCHAR
STARTCHAR U+0048
ENCODING 72
SWIDTH 500 0
DWIDTH 5 0
BBX 5 12 0 0
BITMAP
00
00
00
90
90
90
F0
90
90
90
00
00
ENDCHAR
STARTCHAR U+0049
ENCODING 73
SWIDTH 500 0
DWIDTH 5 0
BBX 5 12 0 0
BITMAP
00
00
00
70
20
20
20
20
20
70
00
00
ENDCHAR
STARTCHAR U+004A
ENCODING 74
SWIDTH 500 0
DWIDTH 5 0
BBX 5 12 0 0
BITMAP
00
00
00
30
20
20
20
20
A0
60
00
00
ENDCHAR
STARTCHAR U+004B
ENCODING 75
SWIDTH 500 0
DWIDTH 5 0
BBX 5 12 0 0
BITMAP
00
00
00
90
90
A0
E0
A0
90
90
00
00
ENDCHAR
STARTCHAR U+004C
ENCODING 76
SWIDTH 500 0
DWIDTH 5 0
BBX 5 12 0 0
BITMAP
00
00
00
40
40
40
40
40
40
70
00
00
ENDCHAR
STARTCHAR U+004D
ENCODING 77
SWIDTH 500 0
DWIDTH 5 0
BBX 5 12 0 0
BITMAP
00
00
00
D0
D0
B0
B0
B0
B0
90
00
00
ENDCHAR
STARTCHAR U+004E
ENCODING 78
SWIDTH 500 0
DWIDTH 5 0
BBX 5 12 0 0
BITMAP
00
00
00
D0
D0
D0
B0
B0
90
90
00
00
ENDCHAR
STARTCHAR U+004F
ENCODING 79
SWIDTH 500 0
DWIDTH 5 0
BBX 5 12 0 0
BITMAP
00
00
00
60
50
90
90
90
50
60
00
00
ENDCHAR
STARTCHAR U+0050
ENCODING 80
SWIDTH 500 0
DWIDTH 5 0
BBX 5 12 0 0
BITMAP
00
00
00
F0
90
90
F0
80
80
80
00
00
ENDCHAR
STARTCHAR U+0051
ENCODING 81
SWIDTH 500 0
DWIDTH 5 0
BBX 5 12 0 0
BITMAP
00
00
00
60
50
90
90
90
50
60
10
10
ENDCHAR
STARTCHAR U+0052
ENCODING 82
SWIDTH 500 0
DWIDTH 5 0
BBX 5 12 0 0
BITMAP
00
00
00
F0
90
90
E0
90
90
90
00
00
ENDCHAR
STARTCHAR U+0053
ENCODING 83
SWIDTH 500 0
DWIDTH 5 0
BBX 5 12 0 0
BITMAP
00
00
00
70
90
80
70
10
90
70
00
00
ENDCHAR
STARTCHAR U+0054
ENCODING 84
SWIDTH 500 0
DWIDTH 5 0
BBX 5 12 0 0
BITMAP
00
00
00
F0
20
20
20
20
20
20
00
00
ENDCHAR
STARTCHAR U+0055
ENCODING 85
SWIDTH 500 0
DWIDTH 5 0
BBX 5 12 0 0
BITMAP
00
00
00
90
90
90
90
90
90
70
00
00
ENDCHAR
STARTCHAR U+0056
ENCODING 86
SWIDTH 500 0
DWIDTH 5 0
BBX 5 12 0 0
BITMAP
00
00
00
90
90
90
50
50
60
20
00
00
ENDCHAR
STARTCHAR U+0057
ENCODING 87
SWIDTH 500 0
DWIDTH 5 0
BBX 5 12 0 0
BITMAP
00
00
00
B0
B0
B0
B0
70
50
50
00
00
ENDCHAR
STARTCHAR U+0058
ENCODING 88
SWIDTH 500 0
DWIDTH 5 0
BBX 5 12 0 0
BITMAP
00
00
00
90
50
50
20
50
50
90
00
00
ENDCHAR
STARTCHAR U+0059
ENCODING 89
SWIDTH 500 0
DWIDTH 5 0
BBX 5 12 0 0
BITMAP
00
00
00
90
90
50
60
20
20
20
00
00
ENDCHAR
STARTCHAR U+005A
ENCODING 90
SWIDTH 500 0
DWIDTH 5 0
BBX 5 12 0 0
BITMAP
00
00
00
70
10
10
20
40
40
70
00
00
ENDCHAR
STARTCHAR U+005B
ENCODING 91
SWIDTH 500 0
DWIDTH 5 0
BBX 5 12 0 0
BITMAP
00
00
20
20
20
20
20
20
20
20
20
00
ENDCHAR
STARTCHAR U+005C
ENCODING 92
SWIDTH 500 0
DWIDTH 5 0
BBX 5 12 0 0
BITMAP
00
00
80
40
40
20
20
20
10
10
10
00
ENDCHAR
STARTCHAR U+005D
ENCODING 93
SWIDTH 500 0
DWIDTH 5 0
BBX 5 12 0 0
BITMAP
00
00
60
20
20
20
20
20
20
20
60
00
ENDCHAR
STARTCHAR U+005E
ENCODING 94
SWIDTH 500 0
DWIDTH 5 0
BBX 5 12 0 0
BITMAP
00
00
00
20
60
50
90
00
00
00
00
00
ENDCHAR
STARTCHAR U+005F
ENCODING 95
SWIDTH 500 0
DWIDTH 5 0
BBX 5 12 0 0
BITMAP
00
00
00
00
00
00
00
00
00
F0
00
00
ENDCHAR
STARTCHAR U+0060
ENCODING 96
SWIDTH 500 0
DWIDTH 5 0
BBX 5 12 0 0
BITMAP
00
00
40
20
00
00
00
00
00
00
00
00
ENDCHAR
STARTCHAR U+0061
ENCODING 97
SWIDTH 500 0
DWIDTH 5 0
BBX 5 12 0 0
BITMAP
00
00
00
00
00
60
10
70
90
70
00
00
ENDCHAR
STARTCHAR U+0062
ENCODING 98
SWIDTH 500 0
DWIDTH 5 0
BBX 5 12 0 0
BITMAP
00
00
00
80
80
A0
D0
90
90
E0
00
00
ENDCHAR
STARTCHAR U+0063
ENCODING 99
SWIDTH 500 0
DWIDTH 5 0
BBX 5 12 0 0
BITMAP
00
00
00
00
00
70
50
80
50
70
00
00
ENDCHAR
STARTCHAR U+0064
ENCODING 100
SWIDTH 500 0
DWIDTH 5 0
BBX 5 12 0 0
BITMAP
00
00
00
10
10
70
50
90
50
70
00
00
ENDCHAR
STARTCHAR U+0065
ENCODING 101
SWIDTH 500 0
DWIDTH 5 0
BBX 5 12 0 0
BITMAP
00
00
00
00
00
70
50
F0
40
70
00
00
ENDCHAR
STARTCHAR U+0066
ENCODING 102
SWIDTH 500 0
DWIDTH 5 0
BBX 5 12 0 0
BITMAP
00
00
00
30
40
70
40
40
40
60
00
00
ENDCHAR
STARTCHAR U+0067
ENCODING 103
SWIDTH 500 0
DWIDTH 5 0
BBX 5 12 0 0
BITMAP
00
00
00
00
00
70
50
90
50
70
10
60
ENDCHAR
STARTCHAR U+0068
ENCODING 104
SWIDTH 500 0
DWIDTH 5 0
BBX 5 12 0 0
BITMAP
00
00
00
80
80
B0
D0
90
90
90
00
00
ENDCHAR
STARTCHAR U+0069
ENCODING 105
SWIDTH 500 0
DWIDTH 5 0
BBX 5 12 0 0
BITMAP
00
00
00
20
00
60
20
20
20
70
00
00
ENDCHAR
STARTCHAR U+006A
ENCODING 106
SWIDTH 500 0
DWIDTH 5 0
BBX 5 12 0 0
BITMAP
00
00
00
20
00
60
20
20
20
20
20
40
ENDCHAR
STARTCHAR U+006B
ENCODING 107
SWIDTH 500 0
DWIDTH 5 0
BBX 5 12 0 0
BITMAP
00
00
00
80
80
90
A0
E0
A0
90
00
00
ENDCHAR
STARTCHAR U+006C
ENCODING 108
SWIDTH 500 0
DWIDTH 5 0
BBX 5 12 0 0
BITMAP
00
00
00
60
20
20
20
20
20
70
00
00
ENDCHAR
STARTCHAR U+006D
ENCODING 109
SWIDTH 500 0
DWIDTH 5 0
BBX 5 12 0 0
BITMAP
00
00
00
00
00
D0
B0
B0
B0
B0
00
00
ENDCHAR
STARTCHAR U+006E
ENCODING 110
SWIDTH 500 0
DWIDTH 5 0
BBX 5 12 0 0
BITMAP
00
00
00
00
00
B0
D0
90
90
90
00
00
ENDCHAR
STARTCHAR U+006F
ENCODING 111
SWIDTH 500 0
DWIDTH 5 0
BBX 5 12 0 0
BITMAP
00
00
00
00
00
60
50
90
50
60
00
00
ENDCHAR
STARTCHAR U+0070
ENCODING 112
SWIDTH 500 0
DWIDTH 5 0
BBX 5 12 0 0
BITMAP
00
00
00
00
00
A0
D0
90
90
E0
80
80
ENDCHAR
STARTCHAR U+0071
ENCODING 113
SWIDTH 500 0
DWIDTH 5 0
BBX 5 12 0 0
BITMAP
00
00
00
00
00
70
50
90
50
70
10
10
ENDCHAR
STARTCHAR U+0072
ENCODING 114
SWIDTH 500 0
DWIDTH 5 0
BBX 5 12 0 0
BITMAP
00
00
00
00
00
F0
70
40
40
E0
00
00
ENDCHAR
STARTCHAR U+0073
ENCODING 115
SWIDTH 500 0
DWIDTH 5 0
BBX 5 12 0 0
BITMAP
00
00
00
00
00
70
40
70
10
70
00
00
ENDCHAR
STARTCHAR U+0074
ENCODING 116
SWIDTH 500 0
DWIDTH 5 0
BBX 5 12 0 0
BITMAP
00
00
00
40
40
F0
40
40
40
30
00
00
ENDCHAR
STARTCHAR U+0075
ENCODING 117
SWIDTH 500 0
DWIDTH 5 0
BBX 5 12 0 0
BITMAP
00
00
00
00
00
90
90
90
D0
70
00
00
ENDCHAR
STARTCHAR U+0076
ENCODING 118
SWIDTH 500 0
DWIDTH 5 0
BBX 5 12 0 0
BITMAP
00
00
00
00
00
90
50
50
60
20
00
00
ENDCHAR
STARTCHAR U+0077
ENCODING 119
SWIDTH 500 0
DWIDTH 5 0
BBX 5 12 0 0
BITMAP
00
00
00
00
00
B0
B0
70
50
50
00
00
ENDCHAR
STARTCHAR U+0078
ENCODING 120
SWIDTH 500 0
DWIDTH 5 0
BBX 5 12 0 0
BITMAP
00
00
00
00
00
50
50
20
50
50
00
00
ENDCHAR
STARTCHAR U+0079
ENCODING 121
SWIDTH 500 0
DWIDTH 5 0
BBX 5 12 0 0
BITMAP
00
00
00
00
00
90
50
50
60
20
20
40
ENDCHAR
STARTCHAR U+007A
ENCODING 122
SWIDTH 500 0
DWIDTH 5 0
BBX 5 12 0 0
BITMAP
00
00
00
00
00
70
10
20
40
70
00
00
ENDCHAR
STARTCHAR U+007B
ENCODING 123
SWIDTH 500 0
DWIDTH 5 0
BBX 5 12 0 0
BITMAP
00
00
30
20
20
20
40
20
20
20
30
00
ENDCHAR
STARTCHAR U+007C
ENCODING 124
SWIDTH 500 0
DWIDTH 5 0
BBX 5 12 0 0
BITMAP
00
00
20
20
20
20
20
20
20
20
20
00
ENDCHAR
STARTCHAR U+007D
ENCODING 125
SWIDTH 500 0
DWIDTH 5 0
BBX 5 12 0 0
BITMAP
00
00
40
20
20
20
30
20
20
20
40
00
ENDCHAR
STARTCHAR U+007E
ENCODING 126
SWIDTH 500 0
DWIDTH 5 0
BBX 5 12 0 0
BITMAP
00
00
00
00
50
70
B0
B0
00
00
00
00
ENDCHAR
ENDFONT